<svg width="326" height="71" viewBox="0 0 326 71" fill="none" xmlns="http://www.w3.org/2000/svg">
<path d="M0 0H308C317.941 0 326 8.05887 326 18V53C326 62.9411 317.941 71 308 71H0V0Z" fill="white"/>
<path d="M113.476 25.12H117.396L124.704 45H120.728L118.88 40.044H111.936L110.116 45H106.14L113.476 25.12ZM118.18 37.328L115.436 29.124L112.58 37.328H118.18ZM140.157 45H136.405V36.768C136.405 35.592 136.199 34.7333 135.789 34.192C135.378 33.6507 134.809 33.38 134.081 33.38C133.577 33.38 133.063 33.5107 132.541 33.772C132.037 34.0333 131.579 34.3973 131.169 34.864C130.758 35.312 130.459 35.8347 130.273 36.432V45H126.521V30.328H129.909V33.044C130.282 32.4093 130.758 31.8773 131.337 31.448C131.915 31 132.578 30.664 133.325 30.44C134.09 30.1973 134.893 30.076 135.733 30.076C136.647 30.076 137.394 30.244 137.973 30.58C138.57 30.8973 139.018 31.336 139.317 31.896C139.634 32.4373 139.849 33.0533 139.961 33.744C140.091 34.4347 140.157 35.1347 140.157 35.844V45ZM148.823 45.28C147.572 45.28 146.378 45.0747 145.239 44.664C144.1 44.2533 143.12 43.6467 142.299 42.844L143.643 40.408C144.52 41.1173 145.379 41.64 146.219 41.976C147.078 42.312 147.899 42.48 148.683 42.48C149.411 42.48 149.99 42.3493 150.419 42.088C150.867 41.8267 151.091 41.4347 151.091 40.912C151.091 40.5573 150.97 40.2867 150.727 40.1C150.484 39.8947 150.13 39.7173 149.663 39.568C149.215 39.4187 148.664 39.2507 148.011 39.064C146.928 38.7093 146.023 38.364 145.295 38.028C144.567 37.692 144.016 37.272 143.643 36.768C143.288 36.2453 143.111 35.5827 143.111 34.78C143.111 33.8093 143.354 32.9787 143.839 32.288C144.343 31.5787 145.034 31.028 145.911 30.636C146.807 30.244 147.852 30.048 149.047 30.048C150.092 30.048 151.082 30.216 152.015 30.552C152.948 30.8693 153.798 31.392 154.563 32.12L153.051 34.5C152.304 33.9213 151.595 33.5013 150.923 33.24C150.251 32.96 149.57 32.82 148.879 32.82C148.487 32.82 148.114 32.8667 147.759 32.96C147.423 33.0533 147.143 33.212 146.919 33.436C146.714 33.6413 146.611 33.94 146.611 34.332C146.611 34.6867 146.704 34.9667 146.891 35.172C147.096 35.3587 147.395 35.5267 147.787 35.676C148.198 35.8253 148.692 35.9933 149.271 36.18C150.447 36.516 151.436 36.8613 152.239 37.216C153.06 37.5707 153.676 38.0093 154.087 38.532C154.498 39.036 154.703 39.736 154.703 40.632C154.703 42.088 154.171 43.2267 153.107 44.048C152.043 44.8693 150.615 45.28 148.823 45.28ZM175.127 30.328H178.683L172.551 45H169.415L166.951 38.7L164.543 45H161.379L155.275 30.328H158.803L163.171 41.416L164.879 36.628L162.331 30.356H165.439L166.951 34.836L168.491 30.356H171.599L169.051 36.628L170.787 41.416L175.127 30.328ZM186.727 45.28C185.551 45.28 184.487 45.084 183.535 44.692C182.583 44.2813 181.771 43.7307 181.099 43.04C180.427 42.3307 179.904 41.528 179.531 40.632C179.176 39.7173 178.999 38.756 178.999 37.748C178.999 36.348 179.307 35.0693 179.923 33.912C180.558 32.7547 181.454 31.8307 182.611 31.14C183.787 30.4307 185.168 30.076 186.755 30.076C188.36 30.076 189.732 30.4307 190.871 31.14C192.01 31.8307 192.878 32.7547 193.475 33.912C194.091 35.0507 194.399 36.2827 194.399 37.608C194.399 37.832 194.39 38.0653 194.371 38.308C194.352 38.532 194.334 38.7187 194.315 38.868H182.975C183.05 39.6147 183.264 40.268 183.619 40.828C183.992 41.388 184.459 41.8173 185.019 42.116C185.598 42.396 186.214 42.536 186.867 42.536C187.614 42.536 188.314 42.3587 188.967 42.004C189.639 41.6307 190.096 41.1453 190.339 40.548L193.559 41.444C193.204 42.1907 192.691 42.8533 192.019 43.432C191.366 44.0107 190.591 44.468 189.695 44.804C188.799 45.1213 187.81 45.28 186.727 45.28ZM182.891 36.488H190.563C190.488 35.7413 190.274 35.0973 189.919 34.556C189.583 33.996 189.135 33.5667 188.575 33.268C188.015 32.9507 187.39 32.792 186.699 32.792C186.027 32.792 185.411 32.9507 184.851 33.268C184.31 33.5667 183.862 33.996 183.507 34.556C183.171 35.0973 182.966 35.7413 182.891 36.488ZM205.421 33.576C204.282 33.576 203.265 33.8 202.369 34.248C201.473 34.6773 200.829 35.3027 200.437 36.124V45H196.685V30.328H200.129V33.464C200.651 32.456 201.314 31.6627 202.117 31.084C202.919 30.5053 203.769 30.188 204.665 30.132C204.87 30.132 205.029 30.132 205.141 30.132C205.253 30.132 205.346 30.1413 205.421 30.16V33.576ZM212.917 45.28C211.666 45.28 210.471 45.0747 209.333 44.664C208.194 44.2533 207.214 43.6467 206.393 42.844L207.737 40.408C208.614 41.1173 209.473 41.64 210.313 41.976C211.171 42.312 211.993 42.48 212.777 42.48C213.505 42.48 214.083 42.3493 214.513 42.088C214.961 41.8267 215.185 41.4347 215.185 40.912C215.185 40.5573 215.063 40.2867 214.821 40.1C214.578 39.8947 214.223 39.7173 213.757 39.568C213.309 39.4187 212.758 39.2507 212.105 39.064C211.022 38.7093 210.117 38.364 209.389 38.028C208.661 37.692 208.11 37.272 207.737 36.768C207.382 36.2453 207.205 35.5827 207.205 34.78C207.205 33.8093 207.447 32.9787 207.933 32.288C208.437 31.5787 209.127 31.028 210.005 30.636C210.901 30.244 211.946 30.048 213.141 30.048C214.186 30.048 215.175 30.216 216.109 30.552C217.042 30.8693 217.891 31.392 218.657 32.12L217.145 34.5C216.398 33.9213 215.689 33.5013 215.017 33.24C214.345 32.96 213.663 32.82 212.973 32.82C212.581 32.82 212.207 32.8667 211.853 32.96C211.517 33.0533 211.237 33.212 211.013 33.436C210.807 33.6413 210.705 33.94 210.705 34.332C210.705 34.6867 210.798 34.9667 210.985 35.172C211.19 35.3587 211.489 35.5267 211.881 35.676C212.291 35.8253 212.786 35.9933 213.365 36.18C214.541 36.516 215.53 36.8613 216.333 37.216C217.154 37.5707 217.77 38.0093 218.181 38.532C218.591 39.036 218.797 39.736 218.797 40.632C218.797 42.088 218.265 43.2267 217.201 44.048C216.137 44.8693 214.709 45.28 212.917 45.28Z" fill="#1E1E1E"/>
</svg>
