<svg width="26" height="26" viewBox="0 0 26 26" fill="none" xmlns="http://www.w3.org/2000/svg">
<path d="M24.5 23.125H1.5C0.946875 23.125 0.5 23.5719 0.5 24.125V25.25C0.5 25.3875 0.6125 25.5 0.75 25.5H25.25C25.3875 25.5 25.5 25.3875 25.5 25.25V24.125C25.5 23.5719 25.0531 23.125 24.5 23.125ZM5.05313 20.5C5.11563 20.5 5.17813 20.4937 5.24063 20.4844L10.4969 19.5625C10.5594 19.55 10.6188 19.5219 10.6625 19.475L23.9094 6.22812C23.9383 6.19921 23.9613 6.16487 23.977 6.12707C23.9927 6.08927 24.0008 6.04874 24.0008 6.00781C24.0008 5.96689 23.9927 5.92636 23.977 5.88855C23.9613 5.85075 23.9383 5.81641 23.9094 5.7875L18.7156 0.590625C18.6562 0.53125 18.5781 0.5 18.4937 0.5C18.4094 0.5 18.3313 0.53125 18.2719 0.590625L5.025 13.8375C4.97812 13.8844 4.95 13.9406 4.9375 14.0031L4.01562 19.2594C3.98522 19.4268 3.99609 19.5991 4.04727 19.7613C4.09846 19.9236 4.18842 20.071 4.30937 20.1906C4.51562 20.3906 4.775 20.5 5.05313 20.5Z" fill="#0057FF" fill-opacity="0.9"/>
</svg>
