<svg width="330" height="71" viewBox="0 0 330 71" fill="none" xmlns="http://www.w3.org/2000/svg">
<path d="M0 18C0 8.05888 8.05888 0 18 0H330V71H18C8.05888 71 0 62.9411 0 53V18Z" fill="#0057FF"/>
<path d="M109.556 45.14C108.1 45.14 106.775 44.86 105.58 44.3C104.404 43.7213 103.387 42.956 102.528 42.004C101.688 41.052 101.035 39.9787 100.568 38.784C100.101 37.5707 99.868 36.3293 99.868 35.06C99.868 33.7347 100.111 32.4747 100.596 31.28C101.1 30.0667 101.781 28.9933 102.64 28.06C103.517 27.108 104.544 26.3613 105.72 25.82C106.915 25.26 108.221 24.98 109.64 24.98C111.077 24.98 112.384 25.2693 113.56 25.848C114.755 26.4267 115.772 27.2013 116.612 28.172C117.452 29.1427 118.105 30.2253 118.572 31.42C119.039 32.6147 119.272 33.8467 119.272 35.116C119.272 36.4227 119.029 37.6827 118.544 38.896C118.059 40.0907 117.377 41.164 116.5 42.116C115.641 43.0493 114.615 43.7867 113.42 44.328C112.244 44.8693 110.956 45.14 109.556 45.14ZM109.584 41.724C110.517 41.724 111.348 41.5373 112.076 41.164C112.804 40.772 113.411 40.2587 113.896 39.624C114.381 38.9707 114.745 38.252 114.988 37.468C115.249 36.6653 115.38 35.8627 115.38 35.06C115.38 34.2013 115.24 33.3707 114.96 32.568C114.699 31.7653 114.316 31.056 113.812 30.44C113.327 29.824 112.72 29.3293 111.992 28.956C111.283 28.5827 110.48 28.396 109.584 28.396C108.632 28.396 107.792 28.592 107.064 28.984C106.355 29.3573 105.757 29.8707 105.272 30.524C104.787 31.1587 104.413 31.868 104.152 32.652C103.909 33.436 103.788 34.2387 103.788 35.06C103.788 35.9187 103.919 36.7493 104.18 37.552C104.441 38.3547 104.815 39.064 105.3 39.68C105.804 40.296 106.411 40.7907 107.12 41.164C107.848 41.5373 108.669 41.724 109.584 41.724ZM109.192 37.636H112.832L119.384 45H115.744L109.192 37.636ZM121.705 39.512V30.328H125.457V38.7C125.457 39.82 125.662 40.6693 126.073 41.248C126.483 41.808 127.09 42.088 127.893 42.088C128.378 42.088 128.854 41.9947 129.321 41.808C129.806 41.6027 130.245 41.304 130.637 40.912C131.047 40.52 131.393 40.0253 131.673 39.428V30.328H135.425V40.8C135.425 41.192 135.49 41.472 135.621 41.64C135.77 41.808 136.003 41.9107 136.321 41.948V45C135.947 45.056 135.63 45.0933 135.369 45.112C135.126 45.1493 134.902 45.168 134.697 45.168C134.025 45.168 133.474 45.0187 133.045 44.72C132.634 44.4027 132.391 43.9733 132.317 43.432L132.233 42.256C131.579 43.2453 130.739 44.0013 129.713 44.524C128.686 45.028 127.557 45.28 126.325 45.28C124.813 45.28 123.665 44.7947 122.881 43.824C122.097 42.8347 121.705 41.3973 121.705 39.512ZM145.957 45.28C144.781 45.28 143.717 45.084 142.765 44.692C141.813 44.2813 141.001 43.7307 140.329 43.04C139.657 42.3307 139.135 41.528 138.761 40.632C138.407 39.7173 138.229 38.756 138.229 37.748C138.229 36.348 138.537 35.0693 139.153 33.912C139.788 32.7547 140.684 31.8307 141.841 31.14C143.017 30.4307 144.399 30.076 145.985 30.076C147.591 30.076 148.963 30.4307 150.101 31.14C151.24 31.8307 152.108 32.7547 152.705 33.912C153.321 35.0507 153.629 36.2827 153.629 37.608C153.629 37.832 153.62 38.0653 153.601 38.308C153.583 38.532 153.564 38.7187 153.545 38.868H142.205C142.28 39.6147 142.495 40.268 142.849 40.828C143.223 41.388 143.689 41.8173 144.249 42.116C144.828 42.396 145.444 42.536 146.097 42.536C146.844 42.536 147.544 42.3587 148.197 42.004C148.869 41.6307 149.327 41.1453 149.569 40.548L152.789 41.444C152.435 42.1907 151.921 42.8533 151.249 43.432C150.596 44.0107 149.821 44.468 148.925 44.804C148.029 45.1213 147.04 45.28 145.957 45.28ZM142.121 36.488H149.793C149.719 35.7413 149.504 35.0973 149.149 34.556C148.813 33.996 148.365 33.5667 147.805 33.268C147.245 32.9507 146.62 32.792 145.929 32.792C145.257 32.792 144.641 32.9507 144.081 33.268C143.54 33.5667 143.092 33.996 142.737 34.556C142.401 35.0973 142.196 35.7413 142.121 36.488ZM161.319 45.28C160.068 45.28 158.874 45.0747 157.735 44.664C156.596 44.2533 155.616 43.6467 154.795 42.844L156.139 40.408C157.016 41.1173 157.875 41.64 158.715 41.976C159.574 42.312 160.395 42.48 161.179 42.48C161.907 42.48 162.486 42.3493 162.915 42.088C163.363 41.8267 163.587 41.4347 163.587 40.912C163.587 40.5573 163.466 40.2867 163.223 40.1C162.98 39.8947 162.626 39.7173 162.159 39.568C161.711 39.4187 161.16 39.2507 160.507 39.064C159.424 38.7093 158.519 38.364 157.791 38.028C157.063 37.692 156.512 37.272 156.139 36.768C155.784 36.2453 155.607 35.5827 155.607 34.78C155.607 33.8093 155.85 32.9787 156.335 32.288C156.839 31.5787 157.53 31.028 158.407 30.636C159.303 30.244 160.348 30.048 161.543 30.048C162.588 30.048 163.578 30.216 164.511 30.552C165.444 30.8693 166.294 31.392 167.059 32.12L165.547 34.5C164.8 33.9213 164.091 33.5013 163.419 33.24C162.747 32.96 162.066 32.82 161.375 32.82C160.983 32.82 160.61 32.8667 160.255 32.96C159.919 33.0533 159.639 33.212 159.415 33.436C159.21 33.6413 159.107 33.94 159.107 34.332C159.107 34.6867 159.2 34.9667 159.387 35.172C159.592 35.3587 159.891 35.5267 160.283 35.676C160.694 35.8253 161.188 35.9933 161.767 36.18C162.943 36.516 163.932 36.8613 164.735 37.216C165.556 37.5707 166.172 38.0093 166.583 38.532C166.994 39.036 167.199 39.736 167.199 40.632C167.199 42.088 166.667 43.2267 165.603 44.048C164.539 44.8693 163.111 45.28 161.319 45.28ZM178.461 44.244C178.144 44.3747 177.761 44.524 177.313 44.692C176.865 44.86 176.38 44.9907 175.857 45.084C175.353 45.196 174.84 45.252 174.317 45.252C173.626 45.252 172.992 45.1307 172.413 44.888C171.834 44.6453 171.368 44.2627 171.013 43.74C170.677 43.1987 170.509 42.4987 170.509 41.64V33.212H168.577V30.328H170.509V25.568H174.261V30.328H177.341V33.212H174.261V40.38C174.28 40.884 174.42 41.248 174.681 41.472C174.942 41.696 175.269 41.808 175.661 41.808C176.053 41.808 176.436 41.7427 176.809 41.612C177.182 41.4813 177.481 41.3693 177.705 41.276L178.461 44.244ZM180.415 45V30.328H184.167V45H180.415ZM180.415 28.284V24.56H184.167V28.284H180.415ZM194.328 45.28C193.133 45.28 192.06 45.084 191.108 44.692C190.156 44.2813 189.344 43.7213 188.672 43.012C188.018 42.3027 187.514 41.4907 187.16 40.576C186.805 39.6613 186.628 38.7 186.628 37.692C186.628 36.6653 186.805 35.6947 187.16 34.78C187.514 33.8653 188.018 33.0533 188.672 32.344C189.344 31.6347 190.156 31.084 191.108 30.692C192.06 30.2813 193.133 30.076 194.328 30.076C195.522 30.076 196.586 30.2813 197.52 30.692C198.472 31.084 199.284 31.6347 199.956 32.344C200.628 33.0533 201.132 33.8653 201.468 34.78C201.822 35.6947 202 36.6653 202 37.692C202 38.7 201.822 39.6613 201.468 40.576C201.132 41.4907 200.628 42.3027 199.956 43.012C199.302 43.7213 198.5 44.2813 197.548 44.692C196.596 45.084 195.522 45.28 194.328 45.28ZM190.492 37.692C190.492 38.5507 190.66 39.316 190.996 39.988C191.332 40.6413 191.789 41.1547 192.368 41.528C192.946 41.9013 193.6 42.088 194.328 42.088C195.037 42.088 195.681 41.9013 196.26 41.528C196.838 41.136 197.296 40.6133 197.632 39.96C197.986 39.288 198.164 38.5227 198.164 37.664C198.164 36.824 197.986 36.068 197.632 35.396C197.296 34.724 196.838 34.2013 196.26 33.828C195.681 33.4547 195.037 33.268 194.328 33.268C193.6 33.268 192.946 33.464 192.368 33.856C191.789 34.2293 191.332 34.752 190.996 35.424C190.66 36.0773 190.492 36.8333 190.492 37.692ZM218.168 45H214.416V36.768C214.416 35.592 214.211 34.7333 213.8 34.192C213.39 33.6507 212.82 33.38 212.092 33.38C211.588 33.38 211.075 33.5107 210.552 33.772C210.048 34.0333 209.591 34.3973 209.18 34.864C208.77 35.312 208.471 35.8347 208.284 36.432V45H204.532V30.328H207.92V33.044C208.294 32.4093 208.77 31.8773 209.348 31.448C209.927 31 210.59 30.664 211.336 30.44C212.102 30.1973 212.904 30.076 213.744 30.076C214.659 30.076 215.406 30.244 215.984 30.58C216.582 30.8973 217.03 31.336 217.328 31.896C217.646 32.4373 217.86 33.0533 217.972 33.744C218.103 34.4347 218.168 35.1347 218.168 35.844V45ZM226.835 45.28C225.584 45.28 224.389 45.0747 223.251 44.664C222.112 44.2533 221.132 43.6467 220.311 42.844L221.655 40.408C222.532 41.1173 223.391 41.64 224.231 41.976C225.089 42.312 225.911 42.48 226.695 42.48C227.423 42.48 228.001 42.3493 228.431 42.088C228.879 41.8267 229.103 41.4347 229.103 40.912C229.103 40.5573 228.981 40.2867 228.739 40.1C228.496 39.8947 228.141 39.7173 227.675 39.568C227.227 39.4187 226.676 39.2507 226.023 39.064C224.94 38.7093 224.035 38.364 223.307 38.028C222.579 37.692 222.028 37.272 221.655 36.768C221.3 36.2453 221.123 35.5827 221.123 34.78C221.123 33.8093 221.365 32.9787 221.851 32.288C222.355 31.5787 223.045 31.028 223.923 30.636C224.819 30.244 225.864 30.048 227.059 30.048C228.104 30.048 229.093 30.216 230.027 30.552C230.96 30.8693 231.809 31.392 232.575 32.12L231.063 34.5C230.316 33.9213 229.607 33.5013 228.935 33.24C228.263 32.96 227.581 32.82 226.891 32.82C226.499 32.82 226.125 32.8667 225.771 32.96C225.435 33.0533 225.155 33.212 224.931 33.436C224.725 33.6413 224.623 33.94 224.623 34.332C224.623 34.6867 224.716 34.9667 224.903 35.172C225.108 35.3587 225.407 35.5267 225.799 35.676C226.209 35.8253 226.704 35.9933 227.283 36.18C228.459 36.516 229.448 36.8613 230.251 37.216C231.072 37.5707 231.688 38.0093 232.099 38.532C232.509 39.036 232.715 39.736 232.715 40.632C232.715 42.088 232.183 43.2267 231.119 44.048C230.055 44.8693 228.627 45.28 226.835 45.28Z" fill="white"/>
</svg>
